<?xml version="1.0" encoding="utf-8"?>
<!-- Generator: Adobe Illustrator 19.0.0, SVG Export Plug-In . SVG Version: 6.00 Build 0)  -->
<svg version="1.1" xmlns="http://www.w3.org/2000/svg" xmlns:xlink="http://www.w3.org/1999/xlink" x="0px" y="0px"
	 viewBox="0 0 1024 1024" style="enable-background:new 0 0 1024 1024;" xml:space="preserve">
<style type="text/css">
	.st0{display:none;}
	.st1{fill:#1565C0;}
	.st2{display:inline;fill:url(#XMLID_4_);}
	.st3{fill:#FFFFFF;}
</style>
<g id="Layer_1" class="st0">
	<path id="XMLID_1_" class="st1" d="M866.8,1024H159.2C72.2,1024,1,952.8,1,865.8V158.2C1,71.2,72.2,0,159.2,0h707.6
		c87,0,158.2,71.2,158.2,158.2v707.6C1025,952.8,953.8,1024,866.8,1024z"/>
	<linearGradient id="XMLID_4_" gradientUnits="userSpaceOnUse" x1="512" y1="-9.404084e-008" x2="512" y2="1024">
		<stop  offset="0" style="stop-color:#4382BF"/>
		<stop  offset="1" style="stop-color:#1565C0"/>
	</linearGradient>
	<path id="XMLID_5_" class="st2" d="M512,1024L512,1024C230.4,1024,0,793.6,0,512v0C0,230.4,230.4,0,512,0h0
		c281.6,0,512,230.4,512,512v0C1024,793.6,793.6,1024,512,1024z"/>
</g>
<g id="Layer_2">
</g>
<g id="Layer_3">
	<path id="XMLID_2_" class="st3" d="M269.7,427.6c0.4-4.4,8-5.8,2.4-28.1c-3.8-12.5-11.4-28.5-11.4-28.5s-31.1-64-25.4-96.3
		c2.2-30.5,26.9-65.5,35.5-75.5c6.4-6.5,27.7-32.8,82.9-42.8c24.3-4.4,64-4.8,93.3,5.1c37.2,12.5,62,38.5,65.1,43.8
		c0,0,50.3,55.6,34.8,125.8c-5.5,27-17.5,67.3-52.2,99c-6.7,7.9,8.6,11.1,22.9,13.2c26,3.9,43.5,6.7,57,4.4
		c13.5-2.3,23.9-7.5,23.9-7.5s42.2-34.1,54.6-56.9c-23.7-38.9-4.8-92.2-4.8-92.2c3.8-11.4,9.8-19.6,9.8-19.6s27.7-3,60,45.4
		c14.1,21.9,16.1,68.3,16.1,68.3s55.6,8.2,92.8,88.4c10.7,26.2,8.6,58.9,6.8,60.9c-1.9,2-13,20.8-105.2,24.9c0,15.2,19,10.9,19,10.9
		s26.1-5.7,30.4-7.6c4.3-1.9,47.5-7.6,62.6,23.7c9.8,20.3,2.5,28.9-15.2,34.2c-13.8,3.3-17.1,0-17.1,0s-26.6-24.2-42.2,6.6
		c-21.8,30.3-76.1,41.5-76.1,41.5s-26.4,4.6-48.2-1.1c-7.6,3.8,0,16.6,0,16.6s26.6,47.4-20.4,85.4c-26.1,23.3-28.9,30.4-28.9,30.4
		s-5.2,10.8,73.6,2.8c50.8-2,54.2,43.4-5.4,43.1c-69.3,0-180.6,0.2-180.6,0.2s-14.2-4.7-7.2-20.6c-8.5-8.8-28.5,3.3-28.5,3.3
		s-54.1,13.8-130-39.9c-75.9-53.6-105.8-192.7-33.7-270.5c25.6-35.1,84.5-94.6,95.9-122c0.3-1.1,3-9.2,3.3-19.2
		c-0.7-23.1-15.6-37-29.4-40.6c-23.4-4.8-38.9,4.7-45.8,13c-22.1,21.6-14.7,55.5-17.1,59.3C287.4,422.2,269.3,431.9,269.7,427.6z"/>
</g>
</svg>
